<?xml version="1.0" encoding="utf-8"?>
<!-- Generator: Adobe Illustrator 19.2.1, SVG Export Plug-In . SVG Version: 6.00 Build 0)  -->
<svg version="1.1" id="Layer_1" xmlns="http://www.w3.org/2000/svg" xmlns:xlink="http://www.w3.org/1999/xlink" x="0px" y="0px"
	 viewBox="0 0 150 100" style="enable-background:new 0 0 150 100;" xml:space="preserve">
<style type="text/css">
	.st0{fill:#242943;}
</style>
<path class="st0" d="M76.2,18.2H50.5c-4.4,0-8,3.6-8,8c0,3.7,2.5,6.8,5.9,7.7l-2.1,6c0,0.1-0.1,0.3-0.1,0.4c0,0,0,0,0,0.1
	c0,0.2,0,0.3,0.1,0.5c0,0,0,0,0,0.1c0.1,0.2,0.2,0.3,0.3,0.4c0,0,0,0,0,0c0,0,0,0,0,0c0,0,0.1,0.1,0.1,0.1c0,0,0.1,0.1,0.1,0.1
	c0,0,0.1,0,0.1,0.1c0,0,0.1,0,0.1,0.1c0,0,0,0,0,0c0,0,0,0,0,0c0.1,0,0.3,0.1,0.4,0.1c0,0,0,0,0,0c0.2,0,0.3,0,0.5-0.1
	c0,0,0.1,0,0.1-0.1c0.1-0.1,0.2-0.1,0.3-0.2c0,0,0.1,0,0.1,0l7.5-7.3h19.8c4.4,0,8-3.6,8-8S80.6,18.2,76.2,18.2z M64.6,29.8H51.8
	c-0.8,0-1.5-0.7-1.5-1.5s0.7-1.5,1.5-1.5h12.8c0.8,0,1.5,0.7,1.5,1.5S65.5,29.8,64.6,29.8z M70.2,25.3H51.8c-0.8,0-1.5-0.7-1.5-1.5
	s0.7-1.5,1.5-1.5h18.5c0.8,0,1.5,0.7,1.5,1.5S71.1,25.3,70.2,25.3z"/>
<path class="st0" d="M107.5,44.8c0-5-4.1-9.1-9.1-9.1H67.9c-5,0-9.1,4.1-9.1,9.1s4.1,9.1,9.1,9.1h23.6l9,8.7c0,0,0.1,0,0.1,0.1
	c0.1,0.1,0.2,0.1,0.3,0.2c0.1,0,0.1,0.1,0.1,0.1c0.2,0.1,0.3,0.1,0.5,0.1c0.2,0,0.3,0,0.4-0.1c0,0,0,0,0,0c0,0,0,0,0,0
	c0.1,0,0.1,0,0.1-0.1c0,0,0.1,0,0.1-0.1c0,0,0.1-0.1,0.1-0.1c0,0,0.1-0.1,0.1-0.1c0,0,0,0,0,0c0,0,0,0,0,0c0.1-0.1,0.2-0.3,0.3-0.4
	c0,0,0,0,0-0.1c0.1-0.2,0.1-0.3,0.1-0.5c0,0,0,0,0-0.1c0-0.1,0-0.3-0.1-0.4l-2.6-7.4C104.4,52.8,107.5,49.1,107.5,44.8z M93.2,48.4
	H75c-0.8,0-1.5-0.7-1.5-1.5c0-0.8,0.7-1.5,1.5-1.5h18.2c0.8,0,1.5,0.7,1.5,1.5C94.8,47.7,94.1,48.4,93.2,48.4z M98.3,44H72.2
	c-0.8,0-1.5-0.7-1.5-1.5c0-0.8,0.7-1.5,1.5-1.5h26.1c0.8,0,1.5,0.7,1.5,1.5C99.8,43.3,99.2,44,98.3,44z"/>
<path class="st0" d="M79.2,56.3H51.1c-4.7,0-8.6,3.8-8.6,8.6c0,4,2.8,7.4,6.5,8.3l-2.3,6.7c0,0.1-0.1,0.3-0.1,0.4c0,0,0,0,0,0.1
	c0,0.2,0,0.3,0.1,0.5c0,0,0,0,0,0.1c0.1,0.2,0.2,0.3,0.3,0.4c0,0,0,0,0,0c0,0,0,0,0,0c0,0,0.1,0.1,0.1,0.1c0,0,0.1,0.1,0.1,0.1
	c0,0,0.1,0,0.1,0.1c0,0,0.1,0,0.1,0.1c0,0,0,0,0,0c0,0,0,0,0,0c0.1,0,0.3,0.1,0.4,0.1c0.2,0,0.3,0,0.5-0.1c0.1,0,0.1,0,0.1-0.1
	c0.1-0.1,0.2-0.1,0.3-0.2c0,0,0.1,0,0.1-0.1l8.3-8h21.7c4.7,0,8.6-3.8,8.6-8.6S83.9,56.3,79.2,56.3z M51.8,61h21.6
	c0.8,0,1.5,0.7,1.5,1.5S74.2,64,73.4,64H51.8c-0.8,0-1.5-0.7-1.5-1.5S51,61,51.8,61z M79.5,68.5H51.8c-0.8,0-1.5-0.7-1.5-1.5
	c0-0.8,0.7-1.5,1.5-1.5h27.7c0.8,0,1.5,0.7,1.5,1.5C81,67.8,80.3,68.5,79.5,68.5z"/>
</svg>
