<?xml version="1.0" encoding="utf-8"?>
<!-- Generator: Adobe Illustrator 19.2.1, SVG Export Plug-In . SVG Version: 6.00 Build 0)  -->
<svg version="1.1" id="Layer_1" xmlns="http://www.w3.org/2000/svg" xmlns:xlink="http://www.w3.org/1999/xlink" x="0px" y="0px"
	 viewBox="0 0 200 100" style="enable-background:new 0 0 200 100;" xml:space="preserve">
<style type="text/css">
	.st0{fill:#FFFFFF;}
</style>
<title>learning</title>
<desc>Created with Sketch.</desc>
<g>
	<g>
		<path class="st0" d="M119.1,56.2H54.7c-2.6,0-4.7-2.1-4.7-4.7V4.7C50,2.1,52.1,0,54.7,0h78.1c2.6,0,4.7,2.1,4.7,4.7v33.1
			c7.1,1.5,12.5,7.7,12.5,15.3c0,8.6-7,15.6-15.6,15.6C126.8,68.8,120.5,63.4,119.1,56.2z M131.2,37.8V6.2h-75V50h62.8
			C120.3,43.9,125.2,39.1,131.2,37.8z M134.4,62.5c-5.2,0-9.4-4.2-9.4-9.4s4.2-9.4,9.4-9.4s9.4,4.2,9.4,9.4S139.5,62.5,134.4,62.5z
			 M123.4,68.8c-2.6,0-4.7,2.1-4.7,4.7v21.9c0,2.6,2.1,4.7,4.7,4.7h21.9c2.6,0,4.7-2.1,4.7-4.7V73.4c0-2.6-2.1-4.7-4.7-4.7H123.4z
			 M125,75h18.8v18.8H125V75z M89.1,87.5c-2.6,0-4.7,2.1-4.7,4.7v7.8h31.2v-7.8c0-2.6-2.1-4.7-4.7-4.7H89.1z M90.6,93.8h18.8v6.2
			H90.6V93.8z M54.7,87.5c-2.6,0-4.7,2.1-4.7,4.7v7.8h31.2v-7.8c0-2.6-2.1-4.7-4.7-4.7H54.7z M56.2,93.8H75v6.2H56.2V93.8z
			 M100,87.5c8.6,0,15.6-7,15.6-15.6s-7-15.6-15.6-15.6s-15.6,7-15.6,15.6S91.4,87.5,100,87.5z M100,81.2c-5.2,0-9.4-4.2-9.4-9.4
			s4.2-9.4,9.4-9.4c5.2,0,9.4,4.2,9.4,9.4S105.2,81.2,100,81.2z M65.6,87.5c8.6,0,15.6-7,15.6-15.6s-7-15.6-15.6-15.6
			S50,63.3,50,71.9S57,87.5,65.6,87.5z M65.6,81.2c-5.2,0-9.4-4.2-9.4-9.4s4.2-9.4,9.4-9.4s9.4,4.2,9.4,9.4S70.8,81.2,65.6,81.2z
			 M103.1,14.1h6.2v29.7h-6.2V14.1z M90.6,21.9h6.2v21.9h-6.2V21.9z M78.1,28.1h6.2v15.6h-6.2V28.1z"/>
	</g>
</g>
</svg>
