<?xml version="1.0" encoding="utf-8"?>
<!-- Generator: Adobe Illustrator 19.2.1, SVG Export Plug-In . SVG Version: 6.00 Build 0)  -->
<svg version="1.1" id="Layer_1" xmlns="http://www.w3.org/2000/svg" xmlns:xlink="http://www.w3.org/1999/xlink" x="0px" y="0px"
	 viewBox="0 0 200 100" style="enable-background:new 0 0 200 100;" xml:space="preserve">
<style type="text/css">
	.st0{fill:#FFFFFF;}
</style>
<title>network_hub_share</title>
<path class="st0" d="M136.9,47.6c-3.2,0-6,1.8-7.3,4.8l-14.1-3.3c0.8-5.3-0.5-10.8-3.8-15.1l12.9-11.2c5.3,4.8,13.5,4.3,18.3-1
	s4.3-13.5-1-18.3c-5.3-4.8-13.5-4.3-18.3,1c-4,4.5-4.4,11.1-1,16l-12.8,11.1c-7-7-18.2-7.8-26.1-1.9L70.1,14.2
	c2.7-3.6,2-8.5-1.4-11.3c-3.5-2.7-8.5-2-11.3,1.4c-2.7,3.6-2,8.5,1.4,11.3c2.5,2,6.1,2.2,9,0.6l13.4,15.5
	c-7.8,7.9-7.8,20.6,0.1,28.5c0.5,0.5,0.9,0.9,1.4,1.3L73.3,75c-6.5-3.6-14.5-1.1-18.1,5.3c-3.6,6.5-1.1,14.5,5.3,18.1
	c6.5,3.6,14.5,1.1,18.1-5.3c2.9-5.5,1.8-12.2-2.8-16.4l9.5-13.3c6.3,3.8,14.1,3.8,20.4,0l13.5,19.4c-2.1,2.5-1.8,6.3,0.7,8.4
	c2.5,2.1,6.3,1.8,8.4-0.7c2.1-2.5,1.8-6.3-0.7-8.4c-1.6-1.4-3.9-1.8-5.9-1l-13.4-19.4c3.1-2.5,5.3-5.8,6.5-9.7l14.1,3.3
	c0,0.1,0,0.2,0,0.3c0,4.4,3.6,8,8,8c4.5,0,8-3.6,8-8S141.4,47.6,136.9,47.6L136.9,47.6z"/>
</svg>
