<?xml version="1.0" encoding="utf-8"?>
<!-- Generator: Adobe Illustrator 19.2.1, SVG Export Plug-In . SVG Version: 6.00 Build 0)  -->
<svg version="1.1" id="Layer_1" xmlns="http://www.w3.org/2000/svg" xmlns:xlink="http://www.w3.org/1999/xlink" x="0px" y="0px"
	 viewBox="0 0 195 130" style="enable-background:new 0 0 195 130;" xml:space="preserve">
<style type="text/css">
	.st0{fill:#242943;}
</style>
<title>network_hub_share</title>
<path class="st0" d="M133.9,62.5c-3.1,0-5.9,1.8-7.2,4.7l-13.9-3.2c0.8-5.2-0.5-10.6-3.7-14.8l12.7-11c5.2,4.7,13.3,4.2,18-1
	c4.7-5.2,4.2-13.3-1-18c-5.2-4.7-13.3-4.2-18,1c-3.9,4.4-4.3,10.9-1,15.7l-12.6,10.9c-6.9-6.9-17.9-7.7-25.7-1.9L68.2,29.7
	c2.7-3.5,2-8.4-1.4-11.1s-8.4-2-11.1,1.4c-2.7,3.5-2,8.4,1.4,11.1c2.5,2,6,2.2,8.8,0.6l13.2,15.2c-7.7,7.8-7.7,20.3,0.1,28
	c0.5,0.5,0.9,0.9,1.4,1.3l-9.2,13.2c-6.4-3.5-14.3-1.1-17.8,5.2c-3.5,6.4-1.1,14.3,5.2,17.8c6.4,3.5,14.3,1.1,17.8-5.2
	c2.9-5.4,1.8-12-2.8-16.1L83.1,78c6.2,3.7,13.9,3.7,20.1,0l13.3,19.1c-2.1,2.5-1.8,6.2,0.7,8.3c2.5,2.1,6.2,1.8,8.3-0.7
	c2.1-2.5,1.8-6.2-0.7-8.3c-1.6-1.4-3.8-1.8-5.8-1l-13.2-19.1c3-2.5,5.2-5.7,6.4-9.5l13.9,3.2c0,0.1,0,0.2,0,0.3
	c0,4.3,3.5,7.9,7.9,7.9s7.9-3.5,7.9-7.9S138.3,62.5,133.9,62.5L133.9,62.5z"/>
</svg>
