<?xml version="1.0" encoding="utf-8"?>
<!-- Generator: Adobe Illustrator 19.2.1, SVG Export Plug-In . SVG Version: 6.00 Build 0)  -->
<svg version="1.1" id="Layer_1" xmlns="http://www.w3.org/2000/svg" xmlns:xlink="http://www.w3.org/1999/xlink" x="0px" y="0px"
	 viewBox="0 0 142.5 95" style="enable-background:new 0 0 142.5 95;" xml:space="preserve">
<style type="text/css">
	.st0{fill:#242943;}
</style>
<rect x="68.2" y="59.5" class="st0" width="6" height="2"/>
<path class="st0" d="M69.2,48.5h-2c0,0.2-1.1,1-3,1c-1.9,0-3-0.8-3-1h-2c0,1.7,2.1,3,5,3S69.2,50.2,69.2,48.5z"/>
<path class="st0" d="M78.2,49.5c-1.9,0-3-0.8-3-1h-2c0,1.7,2.1,3,5,3s5-1.3,5-3h-2C81.2,48.7,80.2,49.5,78.2,49.5z"/>
<rect x="39.2" y="36.5" class="st0" width="3" height="2"/>
<rect x="43.2" y="32.5" class="st0" width="2" height="2"/>
<rect x="39.2" y="32.5" class="st0" width="2" height="2"/>
<rect x="97.2" y="33.5" class="st0" width="2" height="2"/>
<rect x="101.2" y="33.5" class="st0" width="2" height="2"/>
<rect x="91.2" y="19.5" class="st0" width="2" height="2"/>
<rect x="95.2" y="19.5" class="st0" width="2" height="2"/>
<rect x="99.2" y="19.5" class="st0" width="2" height="2"/>
<rect x="43.2" y="15.5" class="st0" width="2" height="2"/>
<rect x="47.2" y="15.5" class="st0" width="2" height="2"/>
<rect x="51.2" y="15.5" class="st0" width="2" height="2"/>
<rect x="70.2" y="20.5" class="st0" width="2" height="2"/>
<rect x="74.2" y="20.5" class="st0" width="2" height="2"/>
<rect x="65.2" y="31.5" class="st0" width="2" height="2"/>
<rect x="69.2" y="31.5" class="st0" width="2" height="2"/>
<rect x="78.2" y="20.5" class="st0" width="2" height="2"/>
<path class="st0" d="M86.6,35.5h8.7v-2h-9.5c-0.7-1.4-1.6-2.8-2.7-3.9c-3.1-3.3-7.2-5.1-11.7-5.1c-4,0-7.7,1.4-10.6,4H44.2v2h14.6
	c-1.4,1.8-2.5,3.8-3.1,6H44.2v2h11.1c-0.1,1-0.2,2-0.1,3l0.2,3.2c0.5,7.7,3.2,14.8,7.8,20.8h0c0,2.8-2.2,5-5,5h-8.5
	c-1.9,0-3.6,0.7-5,2l-5.2,5.2c-0.2,0.2-0.3,0.4-0.3,0.7v1h2v-0.6l5-4.9c0.9-0.9,2.2-1.5,3.5-1.5h8.5c3.2,0,5.8-2.1,6.7-5
	c0.9,0.9,1.8,1.9,2.7,2.7c0.2,0.2,0.4,0.3,0.7,0.3h6c0.2,0,0.5-0.1,0.7-0.3c0.9-0.8,1.8-1.7,2.6-2.6c0.9,2.8,3.5,4.8,6.7,4.8h8.5
	c1.3,0,2.6,0.5,3.5,1.5l5,4.9v0.6h2v-1c0-0.3-0.1-0.5-0.3-0.7l-5.2-5.2c-1.3-1.3-3.1-2.1-4.9-2.1h-8.5c-2.7,0-4.9-2.2-5-4.8
	c4.7-6,7.5-13.2,7.9-20.9l0.1-1.2h16v-2H87.4C87.5,39.4,87.2,37.4,86.6,35.5z M85.2,44.6c-0.5,9.2-4.5,17.7-11.3,23.9h-5.2
	C62,62.3,58,53.8,57.5,44.6l-0.2-3.2c-0.1-1,0-2,0.1-2.9h5.4l-1.3,1.3l1.4,1.4l3.7-3.7L63,33.8l-1.4,1.4l1.3,1.3h-5
	c0.6-2.1,1.7-4,3.2-5.6c2.7-2.9,6.3-4.4,10.2-4.4c3.9,0,7.6,1.6,10.2,4.4c0.7,0.8,1.4,1.7,1.9,2.6h-6.8l1.3-1.3l-1.4-1.4l-3.7,3.7
	l3.7,3.7l1.4-1.4l-1.3-1.3h7.8c0.7,1.9,1,3.9,0.9,5.9l0,0.1h-4.7l1.3-1.3l-1.4-1.4l-3.7,3.7l3.7,3.7l1.4-1.4l-1.3-1.3h4.6L85.2,44.6
	z"/>
</svg>
