<?xml version="1.0" encoding="utf-8"?>
<!-- Generator: Adobe Illustrator 19.2.1, SVG Export Plug-In . SVG Version: 6.00 Build 0)  -->
<svg version="1.1" id="Layer_1" xmlns="http://www.w3.org/2000/svg" xmlns:xlink="http://www.w3.org/1999/xlink" x="0px" y="0px"
	 viewBox="0 0 200 100" style="enable-background:new 0 0 200 100;" xml:space="preserve">
<style type="text/css">
	.st0{fill:#FFFFFF;}
</style>
<g>
	<rect x="95.2" y="69" class="st0" width="9.4" height="3.1"/>
	<path class="st0" d="M96.7,51.8h-3.1c0,0.3-1.7,1.6-4.7,1.6c-3,0-4.7-1.3-4.7-1.6h-3.1c0,2.7,3.3,4.7,7.8,4.7
		C93.4,56.5,96.7,54.4,96.7,51.8z"/>
	<path class="st0" d="M110.8,53.4c-3,0-4.7-1.3-4.7-1.6H103c0,2.7,3.3,4.7,7.8,4.7c4.5,0,7.8-2,7.8-4.7h-3.1
		C115.5,52.1,113.9,53.4,110.8,53.4z"/>
	<rect x="49.8" y="33" class="st0" width="4.7" height="3.1"/>
	<rect x="56.1" y="26.8" class="st0" width="3.1" height="3.1"/>
	<rect x="49.8" y="26.8" class="st0" width="3.1" height="3.1"/>
	<rect x="140.5" y="28.3" class="st0" width="3.1" height="3.1"/>
	<rect x="146.7" y="28.3" class="st0" width="3.1" height="3.1"/>
	<rect x="131.1" y="6.5" class="st0" width="3.1" height="3.1"/>
	<rect x="137.4" y="6.5" class="st0" width="3.1" height="3.1"/>
	<rect x="143.6" y="6.5" class="st0" width="3.1" height="3.1"/>
	<rect x="56.1" y="0.2" class="st0" width="3.1" height="3.1"/>
	<rect x="62.3" y="0.2" class="st0" width="3.1" height="3.1"/>
	<rect x="68.6" y="0.2" class="st0" width="3.1" height="3.1"/>
	<rect x="98.3" y="8" class="st0" width="3.1" height="3.1"/>
	<rect x="104.5" y="8" class="st0" width="3.1" height="3.1"/>
	<rect x="90.5" y="25.2" class="st0" width="3.1" height="3.1"/>
	<rect x="96.7" y="25.2" class="st0" width="3.1" height="3.1"/>
	<rect x="110.8" y="8" class="st0" width="3.1" height="3.1"/>
	<path class="st0" d="M123.9,31.5h13.6v-3.1h-14.9c-1.1-2.2-2.5-4.4-4.2-6.1c-4.8-5.2-11.3-8-18.3-8c-6.3,0-12,2.2-16.6,6.3h-26v3.1
		h22.8c-2.2,2.8-3.9,5.9-4.8,9.4h-18v3.1H75c-0.2,1.6-0.3,3.1-0.2,4.7l0.3,5c0.8,12,5,23.1,12.2,32.5l0,0c0,4.4-3.4,7.8-7.8,7.8
		H66.2c-3,0-5.6,1.1-7.8,3.1l-8.1,8.1c-0.3,0.3-0.5,0.6-0.5,1.1v1.6h3.1v-0.9l7.8-7.7c1.4-1.4,3.4-2.3,5.5-2.3h13.3
		c5,0,9.1-3.3,10.5-7.8c1.4,1.4,2.8,3,4.2,4.2c0.3,0.3,0.6,0.5,1.1,0.5h9.4c0.3,0,0.8-0.2,1.1-0.5c1.4-1.3,2.8-2.7,4.1-4.1
		c1.4,4.4,5.5,7.5,10.5,7.5h13.3c2,0,4.1,0.8,5.5,2.3l7.8,7.7v0.9h3.1v-1.6c0-0.5-0.2-0.8-0.5-1.1l-8.1-8.1c-2-2-4.8-3.3-7.7-3.3
		h-13.3c-4.2,0-7.7-3.4-7.8-7.5C120,69,124.4,57.7,125,45.7l0.2-1.9h25v-3.1h-25C125.3,37.6,124.9,34.4,123.9,31.5z M121.7,45.7
		c-0.8,14.4-7,27.7-17.7,37.4h-8.1c-10.5-9.7-16.7-23-17.5-37.4l-0.3-5c-0.2-1.6,0-3.1,0.2-4.5h8.4l-2,2l2.2,2.2l5.8-5.8L87,28.8
		L84.8,31l2,2h-7.8c0.9-3.3,2.7-6.3,5-8.8c4.2-4.5,9.8-6.9,15.9-6.9c6.1,0,11.9,2.5,15.9,6.9c1.1,1.3,2.2,2.7,3,4.1h-10.6l2-2
		l-2.2-2.2l-5.8,5.8l5.8,5.8l2.2-2.2l-2-2h12.2c1.1,3,1.6,6.1,1.4,9.2v0.2h-7.3l2-2l-2.2-2.2l-5.8,5.8l5.8,5.8l2.2-2.2l-2-2h7.2
		V45.7z"/>
</g>
</svg>
