<?xml version="1.0" encoding="utf-8"?>
<!-- Generator: Adobe Illustrator 19.2.1, SVG Export Plug-In . SVG Version: 6.00 Build 0)  -->
<svg version="1.1" id="Layer_1" xmlns="http://www.w3.org/2000/svg" xmlns:xlink="http://www.w3.org/1999/xlink" x="0px" y="0px"
	 viewBox="0 0 255 170" style="enable-background:new 0 0 255 170;" xml:space="preserve">
<style type="text/css">
	.st0{fill:#242943;}
</style>
<title>learning</title>
<desc>Created with Sketch.</desc>
<g>
	<g>
		<path class="st0" d="M151.9,93H69.5c-3.3,0-6-2.7-6-6V27c0-3.3,2.7-6,6-6h100c3.3,0,6,2.7,6,6v42.4c9.1,1.9,16,9.9,16,19.6
			c0,11-9,20-20,20C161.8,109,153.8,102.1,151.9,93z M167.5,69.4V29h-96v56h80.4C153.5,77.2,159.7,71,167.5,69.4z M171.5,101
			c-6.6,0-12-5.4-12-12s5.4-12,12-12s12,5.4,12,12S178.1,101,171.5,101z M157.5,109c-3.3,0-6,2.7-6,6v28c0,3.3,2.7,6,6,6h28
			c3.3,0,6-2.7,6-6v-28c0-3.3-2.7-6-6-6H157.5z M159.5,117h24v24h-24V117z M113.5,133c-3.3,0-6,2.7-6,6v10h40v-10c0-3.3-2.7-6-6-6
			H113.5z M115.5,141h24v8h-24V141z M69.5,133c-3.3,0-6,2.7-6,6v10h40v-10c0-3.3-2.7-6-6-6H69.5z M71.5,141h24v8h-24V141z
			 M127.5,133c11,0,20-9,20-20s-9-20-20-20c-11,0-20,9-20,20S116.5,133,127.5,133z M127.5,125c-6.6,0-12-5.4-12-12s5.4-12,12-12
			c6.6,0,12,5.4,12,12S134.1,125,127.5,125z M83.5,133c11,0,20-9,20-20s-9-20-20-20s-20,9-20,20S72.5,133,83.5,133z M83.5,125
			c-6.6,0-12-5.4-12-12s5.4-12,12-12s12,5.4,12,12S90.1,125,83.5,125z M131.5,39h8v38h-8V39z M115.5,49h8v28h-8V49z M99.5,57h8v20
			h-8V57z"/>
	</g>
</g>
</svg>
