<?xml version="1.0" encoding="utf-8"?>
<!-- Generator: Adobe Illustrator 19.2.1, SVG Export Plug-In . SVG Version: 6.00 Build 0)  -->
<svg version="1.1" id="Layer_1" xmlns="http://www.w3.org/2000/svg" xmlns:xlink="http://www.w3.org/1999/xlink" x="0px" y="0px"
	 viewBox="0 0 200 100" style="enable-background:new 0 0 200 100;" xml:space="preserve">
<style type="text/css">
	.st0{fill:#FFFFFF;}
</style>
<path class="st0" d="M132.8,84.5c0-3.8-1.3-6.2-3.6-6.2h-1.6c0.2-0.9,0.4-2,0.4-3.1c0-3.8-1.3-6.2-3.6-6.2h-19.4
	c0.1-2.8,0.2-5.6,0.3-8.5c0.2-3.1,0.2-6.5-0.4-9.8c0-0.2-0.1-0.3-0.1-0.4c0.3-1,0.8-2,1.1-2.5c3-4.8,10.2-3.4,9.7,1.7
	c-0.2,1.3-0.9,2.4-2.3,2.8c-1.1,0.3-2.1-0.5-2.5-1.2c-0.2-0.5-0.4-1.3-0.4-2c0-0.2-2.7,2.6-0.4,4.8c3,3,8.7,0.1,8.3-5.3
	c-0.3-3-2.3-5.6-5.4-6.3c-4.2-0.9-7.6,2-8.7,4.7c-0.5-2-1.2-3.9-2-5.7c-1.2-3-2.6-5.8-3.8-8.6c-0.5-1-0.9-2-1.2-3l1.2-1.9
	c14.7-5.1,12.6-17.7,12.6-17.8L111,9L110,9.3c-7.2,2.7-11.6,6.2-13.1,10.5c-1.2,3.4-0.2,6.1,0.2,7.1l-0.5,0.8
	c-0.4-1.2-0.8-2.5-1.1-3.7c-0.6-2.9-0.6-5.9-0.1-8.9s1.6-5.9,3.2-8.5c1.6-2.6,3.8-4.9,6.4-6.6c-2.8,1.4-5.2,3.6-7.1,6.2
	c-1.8,2.4-3.1,5.2-3.9,8.1l-1.8-1c-0.1-0.9-0.5-3-2.3-5c-2.8-2.8-7.7-3.9-14.4-3.1l-0.9,0.1l0.3,0.9c0,0.1,3,8.6,13.3,8.6l0,0
	c1,0,2-0.1,3.1-0.2l2.3,1.3c-0.6,2.7-0.8,5.6-0.5,8.5c0.4,3.2,1.3,6.3,2.3,9.3c0.9,2.5,1.8,4.9,2.6,7.3c-0.9-0.5-2-1-3.4-1.6
	c0-1.5-0.2-5.4-3.5-9.1c-4.1-4.5-11-6.7-20.8-6.7c-0.7,0-1.4,0-2.2,0h-0.9l0.2,0.9c0,0.2,4,16.2,23.6,16.2l0,0c0.9,0,1.8,0,2.7-0.1
	c2.5,0.9,4.8,2.3,5.1,2.7c0,0,0,0,0-0.1c0.8,2.6,1.3,5.1,1.4,7.7c0.2,2.9,0,5.8-0.4,8.8c-0.4,2.9-0.8,5.9-1.1,9H78.5
	c-0.6,0-1.2,0.3-1.4,0.9c-0.2,0.5-0.2,1.2,0.2,1.6c1,1.3,2.2,4,1.7,5.7c-0.2,0.5-0.4,0.9-0.9,1.2h-5.9c-0.6,0-1.2,0.3-1.4,0.9
	c-0.2,0.5-0.2,1.2,0.2,1.6c1,1.3,2.2,4,1.7,5.7c-0.2,0.5-0.4,0.9-0.9,1.2h-2.8c-0.6,0-1.2,0.3-1.4,0.9c-0.2,0.5-0.2,1.2,0.2,1.6
	c1,1.3,2.2,4,1.7,5.7c-0.2,0.6-0.5,1-1.2,1.3c-0.7,0.3-1,1-0.9,1.7c0.2,0.7,0.8,1.3,1.6,1.3H126c2.2,0,3.6-2.4,3.6-6.2
	c0-1.2-0.2-2.3-0.4-3.1h0.1C131.5,90.7,132.8,88.3,132.8,84.5z M105.8,21.5l-2.2,0.2c-0.5,0.1-1.1,0.1-1.6,0.1c0.7-1,1.4-2,2.1-3
	c1,0.1,2-0.2,2.9-0.5c0.5-0.2,1.1-0.5,1.5-0.9C108,18.7,107.1,20.2,105.8,21.5z M108.8,16.6c-0.8,0.2-1.5,0.4-2.2,0.5
	c-0.4,0.1-0.9,0.2-1.2,0.2c1.6-2.1,3.2-4.1,4.3-5.2C109.6,13.2,109.5,14.8,108.8,16.6z M104.4,14.1c0-0.1,0.1-0.2,0.1-0.3
	c0.9-0.5,2-1.1,3-1.6c-0.9,1.1-2.1,2.6-3.4,4.1c-0.1-0.3-0.1-0.6-0.1-0.9C104.2,14.9,104.2,14.5,104.4,14.1z M100.3,17.3
	c0.8-0.9,1.6-1.8,2.7-2.6c-0.1,0.1-0.1,0.2-0.1,0.3c-0.2,0.5-0.2,1.2-0.1,1.7c0.1,0.3,0.2,0.6,0.2,0.9c-0.8,1-1.5,2-2.2,3
	c0,0,0,0,0-0.1c-0.2-0.5-0.3-0.9-0.5-1.4c-0.1-0.5-0.2-1-0.2-1.5C100.2,17.7,100.2,17.5,100.3,17.3z M101,23.3c1,0,2-0.2,2.9-0.4
	c0.2-0.1,0.5-0.2,0.7-0.2c-1.3,1.1-3,2.1-5,3C100.1,24.8,100.6,24.1,101,23.3z M98.4,20.4c0.2-0.5,0.4-0.9,0.7-1.5
	c0,0.2,0,0.3,0,0.5c0,0.6,0.1,1.2,0.2,1.8c0.2,0.4,0.2,0.8,0.5,1.1c-0.6,0.9-1.2,1.8-1.6,2.7C97.8,24,97.8,22.3,98.4,20.4z
	 M86.1,7.7c0.1,0.1,0.1,0.2,0.2,0.2c0.2,0.4,0.3,0.8,0.4,1.2c0.1,0.3,0.2,0.6,0.2,1c-0.9-0.5-1.7-0.9-2.6-1.2
	C84.2,8.6,84.2,8.4,84,8c-0.2-0.4-0.4-0.9-0.7-1.2C84.3,7,85.3,7.3,86.1,7.7z M81.6,6.6L81.6,6.6c0.3,0.3,0.5,0.6,0.7,0.9
	c0.1,0.2,0.2,0.2,0.2,0.4c-1.2-0.5-2.3-1-3.3-1.4C80,6.5,80.8,6.6,81.6,6.6z M77.3,7.4c1.2,0.5,2.8,1.2,4.6,2
	c-0.2,0.1-0.5,0.2-0.7,0.2c-0.5,0.2-1.1,0.3-1.6,0.5C78.5,9.2,77.8,8.2,77.3,7.4z M83.7,12.6c-1.4-0.5-2.5-1.1-3.4-1.8
	c0.4,0.1,0.7,0.1,1.1,0.1c0.8,0,1.6-0.2,2.3-0.6c0.9,0.4,1.6,0.8,2.5,1.2c-0.3,0.2-0.6,0.3-0.9,0.5C84.7,12.1,84.2,12.3,83.7,12.6z
	 M88.2,13.3L88.2,13.3c-0.9,0-1.8-0.1-2.7-0.2c0.8-0.2,1.5-0.3,2.2-0.7c0.5,0.3,1.1,0.6,1.6,0.9C89,13.2,88.6,13.3,88.2,13.3z
	 M88.5,10.9c0-0.3-0.1-0.6-0.2-0.9c-0.1-0.5-0.2-0.9-0.5-1.3c0.3,0.2,0.6,0.5,0.9,0.8c0.9,0.9,1.4,1.9,1.6,2.7
	C89.8,11.6,89.2,11.2,88.5,10.9z M85.4,28c0.2,0.3,0.5,0.7,0.7,1c0.4,0.6,0.6,1.3,0.8,2c0.2,0.7,0.2,1.4,0.3,2.1c0,0.2,0,0.5,0,0.7
	c-1.7-1.1-3.5-2.2-5.3-3.2c0-0.5-0.1-1-0.2-1.5c-0.2-0.8-0.5-1.5-1-2.1c-0.3-0.4-0.7-0.8-1.1-1.1C81.7,26.6,83.7,27.2,85.4,28z
	 M77.8,25.8c0.2,0.2,0.4,0.3,0.6,0.5c0.5,0.5,0.9,0.9,1.2,1.5s0.5,1.1,0.6,1.7c0,0.1,0,0.2,0,0.2c-3.3-1.9-6.4-3.4-8.6-4.5
	C73.8,25.3,75.9,25.5,77.8,25.8z M69.6,26c2.1,1,5.9,3,9.9,5.2c-0.8,0.3-1.6,0.5-2.5,0.7c-1.2,0.2-2.3,0.3-3.5,0.3
	C71.4,30,70.3,27.6,69.6,26z M73.8,32.7c0.4,0.2,0.8,0.2,1.2,0.3c0.7,0.2,1.4,0.2,2.1,0.2c1.4,0,2.8-0.2,4.1-0.9
	c1.7,1,3.4,2,5.2,3.1c-0.9,0.4-1.8,0.7-2.7,0.9c-1.1,0.3-2.3,0.5-3.4,0.9C77.5,35.9,75.4,34.3,73.8,32.7z M91.1,39.3L91.1,39.3
	c-4,0-7.3-0.7-9.9-1.7c0.2,0,0.3,0,0.4,0c0.8,0,1.5,0,2.3-0.1c1.4-0.2,2.7-0.5,4.1-1.1c1.5,1,2.8,2,4,2.9
	C91.7,39.3,91.3,39.3,91.1,39.3z M88.7,35.1c0-0.6,0-1.2-0.1-1.9c-0.1-0.8-0.3-1.6-0.6-2.4c-0.2-0.6-0.6-1.2-1-1.8
	c1.2,0.7,2.2,1.6,3,2.5c2.3,2.4,2.9,5.1,3,6.8C91.8,37.1,90.3,36,88.7,35.1z M124.3,72c0.2,0.4,0.6,1.5,0.6,3.1s-0.4,2.7-0.6,3.1
	H81.9c0.1-0.2,0.1-0.3,0.2-0.4c0.5-2-0.1-4.1-0.9-5.9H124.3z M125.7,97H72.3c0.1-0.2,0.1-0.3,0.2-0.4c0.5-2-0.1-4.1-0.9-5.9h0.5
	h53.7c0.2,0.4,0.6,1.5,0.6,3.1C126.4,95.5,126,96.6,125.7,97z M129.1,87.6h-3H75.6c0.1-0.2,0.1-0.3,0.2-0.4c0.5-2-0.1-4.1-0.9-5.9
	h3.6h46.1h4.5c0.2,0.4,0.6,1.5,0.6,3.1S129.3,87.2,129.1,87.6z"/>
</svg>
