<?xml version="1.0" encoding="utf-8"?>
<!-- Generator: Adobe Illustrator 19.2.1, SVG Export Plug-In . SVG Version: 6.00 Build 0)  -->
<svg version="1.1" id="Layer_1" xmlns="http://www.w3.org/2000/svg" xmlns:xlink="http://www.w3.org/1999/xlink" x="0px" y="0px"
	 viewBox="0 0 255 170" style="enable-background:new 0 0 255 170;" xml:space="preserve">
<style type="text/css">
	.st0{fill:#242943;}
</style>
<path class="st0" d="M169.5,129c0-4.9-1.7-8-4.6-8h-2c0.3-1.1,0.5-2.5,0.5-4c0-4.9-1.7-8-4.6-8H134c0.1-3.6,0.3-7.2,0.4-10.9
	c0.2-4,0.2-8.3-0.5-12.5c0-0.2-0.1-0.4-0.1-0.5c0.4-1.3,1-2.5,1.4-3.2c3.8-6.1,13-4.3,12.4,2.2c-0.2,1.7-1.2,3.1-3,3.6
	c-1.4,0.4-2.7-0.7-3.2-1.5c-0.3-0.6-0.5-1.7-0.5-2.5c0-0.3-3.4,3.3-0.5,6.1c3.9,3.8,11.2,0.1,10.6-6.8c-0.4-3.9-2.9-7.2-6.9-8.1
	c-5.4-1.2-9.7,2.5-11.2,6c-0.7-2.5-1.5-5-2.5-7.3c-1.5-3.8-3.3-7.4-4.9-11c-0.6-1.3-1.1-2.5-1.5-3.8l1.6-2.4
	c18.8-6.5,16.1-22.6,16.1-22.8l-0.2-1.2l-1.2,0.4c-9.2,3.5-14.8,8-16.8,13.5c-1.5,4.3-0.3,7.8,0.3,9.1l-0.6,1
	c-0.5-1.6-1-3.2-1.4-4.8c-0.8-3.7-0.8-7.6-0.1-11.4c0.7-3.8,2-7.5,4.1-10.9c2-3.3,4.8-6.3,8.2-8.4c-3.6,1.8-6.7,4.6-9.1,7.9
	c-2.3,3.1-4,6.6-5,10.4l-2.3-1.3c-0.1-1.2-0.6-3.9-3-6.4c-3.6-3.6-9.8-5-18.4-4L95,27.6l0.4,1.2c0,0.1,3.8,11,17,11l0,0
	c1.3,0,2.6-0.1,4-0.3l2.9,1.7c-0.8,3.5-1,7.2-0.6,10.9c0.5,4.1,1.7,8.1,3,11.9c1.1,3.2,2.3,6.3,3.3,9.3c-1.1-0.6-2.5-1.3-4.3-2
	c0-1.9-0.3-6.9-4.5-11.6c-5.2-5.7-14.1-8.6-26.6-8.6c-0.9,0-1.8,0-2.8,0h-1.2l0.3,1.2c0,0.2,5.1,20.7,30.2,20.7l0,0
	c1.1,0,2.3,0,3.4-0.1c3.2,1.2,6.2,2.9,6.5,3.5c0,0,0,0,0-0.1c1,3.3,1.7,6.5,1.8,9.8c0.3,3.7,0,7.4-0.5,11.3c-0.5,3.7-1,7.6-1.4,11.5
	h-26c-0.8,0-1.5,0.4-1.8,1.1c-0.3,0.7-0.3,1.5,0.2,2.1c1.3,1.7,2.8,5.1,2.2,7.3c-0.2,0.7-0.5,1.2-1.2,1.5h-7.6
	c-0.8,0-1.5,0.4-1.8,1.1c-0.3,0.7-0.3,1.5,0.2,2.1c1.3,1.7,2.8,5.1,2.2,7.3c-0.2,0.7-0.5,1.2-1.2,1.5h-3.6c-0.8,0-1.5,0.4-1.8,1.1
	c-0.3,0.7-0.3,1.5,0.2,2.1c1.3,1.7,2.8,5.1,2.2,7.3c-0.2,0.8-0.7,1.3-1.5,1.7c-0.9,0.4-1.3,1.3-1.1,2.2s1,1.6,2,1.6h73.2
	c2.8,0,4.6-3.1,4.6-8c0-1.5-0.2-2.9-0.5-4h0.1C167.8,137,169.5,133.9,169.5,129z M134.9,48.4l-2.8,0.3c-0.7,0.1-1.4,0.1-2,0.1
	c0.9-1.3,1.8-2.6,2.7-3.8c1.3,0.1,2.6-0.2,3.7-0.7c0.7-0.3,1.4-0.7,1.9-1.2C137.7,44.8,136.6,46.7,134.9,48.4z M138.8,42.1
	c-1,0.3-1.9,0.5-2.8,0.7c-0.5,0.1-1.1,0.2-1.6,0.2c2.1-2.7,4.1-5.2,5.5-6.7C139.8,37.8,139.6,39.9,138.8,42.1z M133.1,38.9
	c0-0.1,0.1-0.2,0.1-0.4c1.2-0.7,2.5-1.4,3.9-2.1c-1.2,1.4-2.7,3.3-4.3,5.3c-0.1-0.4-0.1-0.8-0.1-1.1C132.8,40,132.9,39.4,133.1,38.9
	z M127.8,43.1c1-1.2,2.1-2.3,3.5-3.3c-0.1,0.1-0.1,0.3-0.1,0.4c-0.2,0.7-0.2,1.5-0.1,2.2c0.1,0.4,0.2,0.8,0.3,1.2
	c-1,1.3-1.9,2.6-2.8,3.9c0,0,0,0,0-0.1c-0.3-0.6-0.4-1.2-0.6-1.8c-0.1-0.6-0.2-1.3-0.2-1.9C127.7,43.6,127.7,43.3,127.8,43.1z
	 M128.8,50.7c1.3,0,2.5-0.2,3.7-0.5c0.3-0.1,0.6-0.2,0.9-0.3c-1.7,1.4-3.8,2.7-6.4,3.8C127.6,52.7,128.2,51.7,128.8,50.7z M125.4,47
	c0.2-0.6,0.5-1.2,0.9-1.9c0,0.2,0,0.4,0,0.7c0,0.8,0.1,1.5,0.3,2.3c0.2,0.5,0.3,1,0.6,1.4c-0.8,1.2-1.5,2.3-2.1,3.4
	C124.7,51.6,124.6,49.4,125.4,47z M109.7,30.7c0.1,0.1,0.1,0.2,0.2,0.3c0.3,0.5,0.4,1,0.5,1.5c0.1,0.4,0.2,0.8,0.2,1.3
	c-1.1-0.6-2.2-1.1-3.3-1.6c-0.1-0.3-0.1-0.6-0.3-1c-0.2-0.5-0.5-1.1-0.9-1.5C107.4,29.9,108.6,30.2,109.7,30.7z M103.9,29.4
	L103.9,29.4c0.4,0.4,0.7,0.8,0.9,1.2c0.1,0.2,0.2,0.3,0.2,0.5c-1.5-0.7-2.9-1.3-4.2-1.8C101.9,29.2,102.9,29.3,103.9,29.4z
	 M98.4,30.4c1.5,0.6,3.6,1.5,5.9,2.5c-0.3,0.1-0.6,0.2-0.9,0.3c-0.7,0.2-1.4,0.4-2.1,0.6C99.9,32.7,99,31.4,98.4,30.4z M106.6,37
	c-1.8-0.6-3.2-1.4-4.4-2.3c0.5,0.1,0.9,0.1,1.4,0.1c1,0,2-0.3,3-0.8c1.1,0.5,2.1,1,3.2,1.6c-0.4,0.2-0.8,0.4-1.2,0.6
	C107.9,36.4,107.3,36.7,106.6,37z M112.4,37.9L112.4,37.9c-1.2,0-2.3-0.1-3.4-0.3c1-0.2,1.9-0.4,2.8-0.9c0.7,0.4,1.4,0.8,2,1.2
	C113.4,37.8,112.9,37.9,112.4,37.9z M112.8,34.9c0-0.4-0.1-0.8-0.2-1.2c-0.1-0.6-0.3-1.2-0.6-1.7c0.4,0.3,0.8,0.6,1.2,1
	c1.1,1.1,1.8,2.4,2.1,3.4C114.4,35.8,113.6,35.3,112.8,34.9z M108.8,56.8c0.3,0.4,0.6,0.9,0.9,1.3c0.5,0.8,0.8,1.7,1,2.6
	c0.2,0.9,0.3,1.8,0.4,2.7c0,0.3,0,0.6,0,0.9c-2.2-1.4-4.5-2.8-6.8-4.1c0-0.7-0.1-1.3-0.3-1.9c-0.3-1-0.7-1.9-1.3-2.7
	c-0.4-0.5-0.9-1-1.4-1.4C104.1,54.9,106.6,55.7,108.8,56.8z M99.1,53.9c0.3,0.2,0.5,0.4,0.8,0.7c0.6,0.6,1.1,1.2,1.5,1.9
	s0.6,1.4,0.8,2.2c0,0.1,0,0.2,0,0.3c-4.2-2.4-8.2-4.4-11-5.8C94,53.3,96.6,53.5,99.1,53.9z M88.6,54.2c2.7,1.3,7.5,3.8,12.7,6.7
	c-1,0.4-2.1,0.7-3.2,0.9c-1.5,0.2-3,0.4-4.5,0.4C90.9,59.3,89.4,56.2,88.6,54.2z M94,62.7c0.5,0.2,1,0.3,1.5,0.4
	c0.9,0.2,1.8,0.3,2.7,0.3c1.8,0,3.6-0.3,5.2-1.2c2.2,1.3,4.4,2.6,6.6,4c-1.1,0.5-2.3,0.9-3.5,1.2c-1.4,0.4-2.9,0.7-4.3,1.1
	C98.7,66.9,96,64.8,94,62.7z M116.1,71.2L116.1,71.2c-5.1,0-9.3-0.9-12.7-2.2c0.2,0,0.4,0,0.5,0c1,0,1.9,0,2.9-0.1
	c1.8-0.2,3.5-0.6,5.2-1.4c1.9,1.3,3.6,2.5,5.1,3.7C116.8,71.2,116.4,71.2,116.1,71.2z M113,65.8c0-0.8,0-1.6-0.1-2.4
	c-0.1-1-0.4-2.1-0.8-3.1c-0.3-0.8-0.8-1.6-1.3-2.3c1.5,0.9,2.8,2,3.9,3.2c2.9,3.1,3.7,6.5,3.9,8.7C117,68.4,115.1,67,113,65.8z
	 M158.6,113c0.3,0.5,0.8,1.9,0.8,4s-0.5,3.5-0.8,4h-54.3c0.1-0.2,0.1-0.4,0.2-0.5c0.6-2.5-0.1-5.3-1.1-7.5H158.6z M160.4,145H92
	c0.1-0.2,0.1-0.4,0.2-0.5c0.6-2.5-0.1-5.3-1.1-7.5h0.7h68.7c0.3,0.5,0.8,1.9,0.8,4C161.3,143.1,160.8,144.5,160.4,145z M164.7,133
	h-3.9H96.2c0.1-0.2,0.1-0.4,0.2-0.5c0.6-2.5-0.1-5.3-1.1-7.5h4.6h59h5.8c0.3,0.5,0.8,1.9,0.8,4C165.5,131.1,165,132.5,164.7,133z"/>
</svg>
