<?xml version="1.0" encoding="utf-8"?>
<!-- Generator: Adobe Illustrator 19.2.1, SVG Export Plug-In . SVG Version: 6.00 Build 0)  -->
<svg version="1.1"
	 id="Layer_1" xmlns:cc="http://creativecommons.org/ns#" xmlns:dc="http://purl.org/dc/elements/1.1/" xmlns:inkscape="http://www.inkscape.org/namespaces/inkscape" xmlns:rdf="http://www.w3.org/1999/02/22-rdf-syntax-ns#" xmlns:sodipodi="http://sodipodi.sourceforge.net/DTD/sodipodi-0.dtd" xmlns:svg="http://www.w3.org/2000/svg"
	 xmlns="http://www.w3.org/2000/svg" xmlns:xlink="http://www.w3.org/1999/xlink" x="0px" y="0px" viewBox="0 0 200 100"
	 style="enable-background:new 0 0 200 100;" xml:space="preserve">
<style type="text/css">
	.st0{fill:#FFFFFF;}
</style>
<g transform="translate(0,-952.36218)">
	<path class="st0" d="M93.7,952.4c-1.1,0-2.1,0.8-2.3,2l-1.3,9.4c-3.7,1-7.3,2.4-10.5,4.3l-7.6-5.7c-0.9-0.7-2.2-0.6-3,0.2l-8.9,8.9
		c-0.8,0.8-0.9,2.1-0.2,3l5.7,7.6c-1.9,3.2-3.4,6.7-4.3,10.5l-9.4,1.3c-1.1,0.2-2,1.1-2,2.3v12.6c0,1.1,0.8,2.1,2,2.3l9.4,1.3
		c1,3.7,2.4,7.3,4.4,10.5c0.6,1.1,2,1.4,3.1,0.8c0.2-0.1,0.4-0.2,0.5-0.4l10.9-11.7c0.6-0.6,0.8-1.5,0.5-2.3c-2.3-6.6-1-14.2,4-19.8
		c0,0,0,0,0,0c3.8-4.2,9-6.4,14.2-6.6L88.9,994c-0.5,0.5-0.7,1.3-0.5,2l1.4,7c0,0,0,0,0,0l1.4,7c0.2,1,1,1.7,2,1.8l7.1,0.7l7.1,0.7
		c0.7,0.1,1.4-0.2,1.9-0.7l10.1-11.2c0.4,5.2-1.3,10.6-5.1,14.8c0,0,0,0,0,0c-5,5.6-12.5,7.6-19.3,6c-0.8-0.2-1.7,0.1-2.2,0.7
		l-10.6,12.1c-0.8,0.9-0.7,2.4,0.2,3.2c0.2,0.1,0.3,0.3,0.5,0.3c2.3,1.1,4.7,1.9,7.1,2.6l1.3,9.4c0.2,1.1,1.1,2,2.3,2h12.6
		c1.1,0,2.1-0.8,2.3-2l1.3-9.4c3.7-1,7.3-2.4,10.5-4.3l7.6,5.7c0.9,0.7,2.2,0.6,3-0.2l8.9-8.9c0.8-0.8,0.9-2.1,0.2-3l-5.7-7.6
		c1.9-3.2,3.4-6.7,4.3-10.5l9.4-1.3c1.1-0.2,2-1.1,2-2.3v-12.6c0-1.1-0.8-2.1-2-2.3l-9.4-1.3c-1-3.7-2.4-7.3-4.3-10.5l5.7-7.6
		c0.7-0.9,0.6-2.2-0.2-3l-8.9-8.9c-0.8-0.8-2.1-0.9-3-0.2l-7.6,5.7c-3.2-1.9-6.7-3.4-10.5-4.3l-1.3-9.4c-0.2-1.1-1.1-2-2.3-2H93.7
		L93.7,952.4z"/>
</g>
</svg>
